# xmcd
#
# Track frame offsets:
#	150
#	17897
#	33810
#	49564
#	66402
#	82137
#	103975
#	117845
#	134865
#	154962
#	169447
#	184420
#	202637
#
# Disc length: 3043 seconds
#
# Revision: 1
# Processed by: cddbd v1.5.2PL0 Copyright (c) Steve Scherf et al.
# Submitted via: audiograbber 1.83.01
#
DISCID=be0be10d
DTITLE=Rough Red - Seeing Red
DYEAR=1999
DGENRE=Country Rock
TTITLE0=Talk To Me
TTITLE1=Living In Australia
TTITLE2=Street Credibility Blues
TTITLE3=I'm A Fool
TTITLE4=Tears Of Dust
TTITLE5=Child Of Circumstance
TTITLE6=A Lifetime From Your Heart
TTITLE7=Rusty Gutters
TTITLE8=The World Keeps Turning
TTITLE9=Spectre In The Trenches
TTITLE10=Groovin' In The Desert
TTITLE11=Sons Of The Southern Cross
TTITLE12=The Stranger In The Mirror
EXTD=Australian Group
EXTT0=\n
EXTT1=
EXTT2=
EXTT3=
EXTT4=
EXTT5=
EXTT6=
EXTT7=
EXTT8=
EXTT9=
EXTT10=
EXTT11=
EXTT12=
PLAYORDER=
